# xmcd CD database file
#
# Track frame offsets:
#	150
#	14017
#	28242
#	40910
#	52366
#	65772
#	79353
#	92885
#	106263
#	119331
#	134108
#	149355
#	162486
#	175437
#	189731
#	203123
#	217433
#	231124
#	245268
#	259635
#	273577
#	287783
#	301958
#	313639
#
# Disc length: 4330 seconds
#
# Revision: 0
# Processed by: cddbd v1.5.1PL0 Copyright (c) Steve Scherf et al.
# Submitted via: CDex 1.51
#
DISCID=8810e818
DTITLE=Bumble Bee Slim (Amos Easton) - Unissued Tests and Alternate Takes
DYEAR=1900
DGENRE=Blues
TTITLE0=Good Morning (Take A)
TTITLE1=Good Morning (Take B)
TTITLE2=Muddy Water (Take A)
TTITLE3=Muddy Water (Take B)
TTITLE4=Baby Fare You Well (Take A)
TTITLE5=Baby Fare You Well (Take B)
TTITLE6=Happy Life Blues (Take B)
TTITLE7=Who's Been Here Today (Take 2)
TTITLE8=When The Music Sounds Good (Take 1)
TTITLE9=I'm Going To Live My Life Alone (Take 1)
TTITLE10=I'm Going To Live My Life Alone (Take 2)
TTITLE11=One Lonesome Day (Take 1)
TTITLE12=One Lonesome Day (Take 2)
TTITLE13=Pains In My Body (Take 1)
TTITLE14=I Ain't In No Trouble (Take 1)
TTITLE15=I Ain't In No Trouble (Take 2)
TTITLE16=12 O'Clock Midnight (Take 2)
TTITLE17=Uncertain Blues (Take 2)
TTITLE18=Cross The Country (Take 1)
TTITLE19=Cross The Country (Take 2)
TTITLE20=You Brought Me Here (Take 2)
TTITLE21=Going Back To Florida (Take 2)
TTITLE22=Sometimes
TTITLE23=Tiny's Boogie
EXTD=
EXTT0=
EXTT1=
EXTT2=
EXTT3=
EXTT4=
EXTT5=
EXTT6=
EXTT7=
EXTT8=
EXTT9=
EXTT10=
EXTT11=
EXTT12=
EXTT13=
EXTT14=
EXTT15=
EXTT16=
EXTT17=
EXTT18=
EXTT19=
EXTT20=
EXTT21=
EXTT22=
EXTT23=
PLAYORDER=
